<svg width="32" height="32" xmlns="http://www.w3.org/2000/svg">

 <g>
  <title>background</title>
  <rect fill="none" id="canvas_background" height="402" width="582" y="-1" x="-1"/>
 </g>
 <g>
  <title>Layer 1</title>
  <path id="Arrow_Forward" fill-rule="evenodd" fill="#ffffff" d="m32,16.009c0,-0.267 -0.11,-0.522 -0.293,-0.714l-9.899,-9.999c-0.391,-0.395 -1.024,-0.394 -1.414,0c-0.391,0.394 -0.391,1.034 0,1.428l8.193,8.275l-27.587,0c-0.552,0 -1,0.452 -1,1.01s0.448,1.01 1,1.01l27.586,0l-8.192,8.275c-0.391,0.394 -0.39,1.034 0,1.428c0.391,0.394 1.024,0.394 1.414,0l9.899,-9.999c0.187,-0.189 0.29,-0.449 0.293,-0.714z" clip-rule="evenodd"/>
 </g>
</svg>