<svg width="64" height="64" xmlns="http://www.w3.org/2000/svg">

 <g>
  <title>background</title>
  <rect fill="none" id="canvas_background" height="402" width="582" y="-1" x="-1"/>
 </g>
 <g>
  <title>Layer 1</title>
  <path fill="#000000" id="Fill-133" d="m49.6,54l-35.2,0c-2.4,0 -4.4,-2 -4.4,-4.4l0,-32.3c0,-2.4 1.6,-4.4 3.7,-4.4l2.2,0l0,2.9l-2.2,0c-0.3,0 -0.7,0.6 -0.7,1.5l0,32.3c0,0.8 0.7,1.5 1.5,1.5l35.2,0c0.8,0 1.5,-0.7 1.5,-1.5l0,-32.3c0,-0.9 -0.5,-1.5 -0.7,-1.5l-2.2,0l0,-2.9l2.2,0c2,0 3.7,2 3.7,4.4l0,32.3c-0.2,2.4 -2.2,4.4 -4.6,4.4" class="st0"/>
  <path fill="#000000" id="Fill-134" d="m20.3,18.8c-0.8,0 -1.5,-0.7 -1.5,-1.5l0,-5.9c0,-0.8 0.7,-1.5 1.5,-1.5s1.5,0.7 1.5,1.5l0,5.9c-0.1,0.8 -0.7,1.5 -1.5,1.5" class="st0"/>
  <path fill="#000000" id="Fill-135" d="m43.7,18.8c-0.8,0 -1.5,-0.7 -1.5,-1.5l0,-5.9c0,-0.8 0.7,-1.5 1.5,-1.5s1.5,0.7 1.5,1.5l0,5.9c0,0.8 -0.7,1.5 -1.5,1.5" class="st0"/>
  <polygon fill="#000000" points="24.699999809265137,12.899993896484375 39.30000019073486,12.899993896484375 39.30000019073486,15.899993896484375 24.699999809265137,15.899993896484375 " id="Fill-136" class="st0"/>
  <polygon fill="#000000" points="12.899999618530273,21.70001220703125 51.10000038146973,21.70001220703125 51.10000038146973,24.70001220703125 12.899999618530273,24.70001220703125 " id="Fill-137" class="st0"/>
  <polygon fill="#000000" points="45.20000076293945,27.691434636712074 48.099998474121094,27.691434636712074 48.099998474121094,30.59142853319645 45.20000076293945,30.59142853319645 " id="Fill-138" class="st0"/>
  <polygon fill="#000000" points="39.29999923706055,27.691434636712074 42.29999923706055,27.691434636712074 42.29999923706055,30.59142853319645 39.29999923706055,30.59142853319645 " id="Fill-139" class="st0"/>
  <polygon fill="#000000" points="33.5,27.691434636712074 36.400001525878906,27.691434636712074 36.400001525878906,30.59142853319645 33.5,30.59142853319645 " id="Fill-140" class="st0"/>
  <polygon fill="#000000" points="27.600000381469727,27.691434636712074 30.5,27.691434636712074 30.5,30.59142853319645 27.600000381469727,30.59142853319645 " id="Fill-141" class="st0"/>
  <polygon fill="#000000" points="21.700000762939453,27.691434636712074 24.700000762939453,27.691434636712074 24.700000762939453,30.59142853319645 21.700000762939453,30.59142853319645 " id="Fill-142" class="st0"/>
  <polygon fill="#000000" points="45.20000076293945,33.59142853319645 48.099998474121094,33.59142853319645 48.099998474121094,36.491422429680824 45.20000076293945,36.491422429680824 " id="Fill-143" class="st0"/>
  <polygon fill="#000000" points="39.29999923706055,33.59142853319645 42.29999923706055,33.59142853319645 42.29999923706055,36.491422429680824 39.29999923706055,36.491422429680824 " id="Fill-144" class="st0"/>
  <polygon fill="#000000" points="33.5,33.59142853319645 36.400001525878906,33.59142853319645 36.400001525878906,36.491422429680824 33.5,36.491422429680824 " id="Fill-145" class="st0"/>
  <polygon fill="#000000" points="27.600000381469727,33.59142853319645 30.5,33.59142853319645 30.5,36.491422429680824 27.600000381469727,36.491422429680824 " id="Fill-146" class="st0"/>
  <polygon fill="#000000" points="21.700000762939453,33.59142853319645 24.700000762939453,33.59142853319645 24.700000762939453,36.491422429680824 21.700000762939453,36.491422429680824 " id="Fill-147" class="st0"/>
  <polygon fill="#000000" points="15.899999618530273,33.59142853319645 18.80000114440918,33.59142853319645 18.80000114440918,36.491422429680824 15.899999618530273,36.491422429680824 " id="Fill-148" class="st0"/>
  <polygon fill="#000000" points="45.20000076293945,39.3914163261652 48.099998474121094,39.3914163261652 48.099998474121094,42.3914163261652 45.20000076293945,42.3914163261652 " id="Fill-149" class="st0"/>
  <polygon fill="#000000" points="39.29999923706055,39.3914163261652 42.29999923706055,39.3914163261652 42.29999923706055,42.3914163261652 39.29999923706055,42.3914163261652 " id="Fill-150" class="st0"/>
  <polygon fill="#000000" points="33.5,39.3914163261652 36.400001525878906,39.3914163261652 36.400001525878906,42.3914163261652 33.5,42.3914163261652 " id="Fill-151" class="st0"/>
  <polygon fill="#000000" points="27.600000381469727,39.3914163261652 30.5,39.3914163261652 30.5,42.3914163261652 27.600000381469727,42.3914163261652 " id="Fill-152" class="st0"/>
  <polygon fill="#000000" points="21.700000762939453,39.3914163261652 24.700000762939453,39.3914163261652 24.700000762939453,42.3914163261652 21.700000762939453,42.3914163261652 " id="Fill-153" class="st0"/>
  <polygon fill="#000000" points="15.899999618530273,39.3914163261652 18.80000114440918,39.3914163261652 18.80000114440918,42.3914163261652 15.899999618530273,42.3914163261652 " id="Fill-154" class="st0"/>
  <polygon fill="#000000" points="39.29999923706055,45.2914407402277 42.29999923706055,45.2914407402277 42.29999923706055,48.191434636712074 39.29999923706055,48.191434636712074 " id="Fill-155" class="st0"/>
  <polygon fill="#000000" points="33.5,45.20001220703125 36.40000009536743,45.20001220703125 36.40000009536743,48.100006103515625 33.5,48.100006103515625 " id="Fill-156" class="st0"/>
  <polygon fill="#000000" points="27.59999990463257,45.20001220703125 30.5,45.20001220703125 30.5,48.100006103515625 27.59999990463257,48.100006103515625 " id="Fill-157" class="st0"/>
  <polygon fill="#000000" points="21.699999809265137,45.20001220703125 24.699999809265137,45.20001220703125 24.699999809265137,48.100006103515625 21.699999809265137,48.100006103515625 " id="Fill-158" class="st0"/>
  <polygon fill="#000000" points="15.899999618530273,45.20001220703125 18.800000190734863,45.20001220703125 18.800000190734863,48.100006103515625 15.899999618530273,48.100006103515625 " id="Fill-159" class="st0"/>
 </g>
</svg>